<svg xmlns="http://www.w3.org/2000/svg" width="22" height="8.999" viewBox="0 0 22 8.999">
  <path id="Shape_1" data-name="Shape 1" d="M1547.3,2629.472l-.008,0h16.956l-.1,2.859a.292.292,0,0,0,0,.41l.173.173a.29.29,0,0,0,.407,0l4.192-4.212a.287.287,0,0,0,.084-.2.284.284,0,0,0-.084-.2l-4.192-4.213a.292.292,0,0,0-.407,0l-.173.173a.287.287,0,0,0-.084.2.273.273,0,0,0,.084.2l.113,2.865h-16.965a.3.3,0,0,0-.292.3v1.369A.293.293,0,0,0,1547.3,2629.472Z" transform="translate(-1547 -2623.996)" fill="#436372"/>
</svg>
