<svg xmlns="http://www.w3.org/2000/svg" width="22" height="9.001" viewBox="0 0 22 9.001">
  <path id="Shape_1" data-name="Shape 1" d="M535.3,654.472h16.948l-.1,2.858a.291.291,0,0,0,0,.409l.172.173a.281.281,0,0,0,.2.086.287.287,0,0,0,.2-.084l4.192-4.211A.289.289,0,0,0,557,653.5a.283.283,0,0,0-.084-.2l-4.192-4.213a.29.29,0,0,0-.407,0l-.172.174a.288.288,0,0,0-.084.2.281.281,0,0,0,.084.2l.113,2.864H535.292a.3.3,0,0,0-.292.3v1.37A.292.292,0,0,0,535.3,654.472Z" transform="translate(-535 -648.996)" fill="#fff"/>
</svg>
