<svg xmlns="http://www.w3.org/2000/svg" width="18.956" height="16.98" viewBox="0 0 18.956 16.98">
  <path id="Shape_16" data-name="Shape 16" d="M1728.456,85.371a2.073,2.073,0,0,1,1.463-3.541c.037,0,.074,0,.111,0a1.971,1.971,0,0,1,1.356.607,2.077,2.077,0,0,1-.667,3.383,2.1,2.1,0,0,1-.8.161A2.058,2.058,0,0,1,1728.456,85.371Zm1.466-2.357a.988.988,0,0,0-.823.549.89.89,0,1,0,.824-.549h0Zm-9.858,2.357a2.072,2.072,0,0,1,1.463-3.541h.005a2.074,2.074,0,1,1-1.468,3.541Zm.643-1.808a.89.89,0,0,0,.822,1.229.9.9,0,0,0,.341-.068.891.891,0,0,0,.286-1.452.879.879,0,0,0-.624-.258h0A.885.885,0,0,0,1720.707,83.563Zm-2.312-.441a.592.592,0,0,1-.286-.787,3.681,3.681,0,0,1,3.054-2.15l-1.055-5.391a.592.592,0,1,1,1.163-.228l1.092,5.578h9.423l1.806-6.772h-13.3a4.355,4.355,0,0,1-4.283-3.693.592.592,0,1,1,1.171-.175,3.166,3.166,0,0,0,3.116,2.682h14.07a.594.594,0,0,1,.573.745l-2.123,7.956a.594.594,0,0,1-.573.439h-10.355a.047.047,0,0,0-.022,0,2.656,2.656,0,0,0-2.68,1.51.593.593,0,0,1-.536.34A.575.575,0,0,1,1718.4,83.122Z" transform="translate(-1716 -68.998)" fill="#243f4d"/>
</svg>
