<svg  width="22" height="20.002" viewBox="0 0 22 20.002">
  <path id="Forma_1" data-name="Forma 1" d="M804.64,1581.15a1.84,1.84,0,1,1,1.84,1.85A1.845,1.845,0,0,1,804.64,1581.15ZM818.014,1583a1.7,1.7,0,1,1,.136,0Zm-10.757-5.734a.814.814,0,0,1-.787-.6l-3.324-12.038h-2.333a.815.815,0,0,1,0-1.631h2.944a.815.815,0,0,1,.787.6l3.323,12.037h9.062l3.011-6.928H809.9a.816.816,0,0,1,0-1.632h11.286a.812.812,0,0,1,.679.366.83.83,0,0,1,.068.776l-3.717,8.56a.814.814,0,0,1-.746.489Z" transform="translate(-800 -1562.998)" fill="#fff"/>
</svg>
