<svg xmlns="http://www.w3.org/2000/svg" width="53.749" height="36.432" viewBox="0 0 53.749 36.432">
  <g id="Сгруппировать_5" data-name="Сгруппировать 5" transform="translate(-803.811 -1020.568)">
    <path id="delivery-truck" d="M839.532,1045.727H828.279a4.974,4.974,0,0,1-9.823,0h-2.418a.787.787,0,0,1-.786-.787v-23.587a.786.786,0,0,1,.786-.786h6.046a.786.786,0,0,1,0,1.572h-5.261v22.014h1.633a4.973,4.973,0,0,1,9.823,0h8.336v-1.125a.785.785,0,1,1,1.57,0v1.125h1.346a4.973,4.973,0,0,1,9.823,0h2v-13.3a6.519,6.519,0,0,0-6.509-6.514h-6.657v15.019a.785.785,0,1,1-1.57,0V1022.14H825.225a.786.786,0,0,1,0-1.572H837.4a.786.786,0,0,1,.786.786v1.416h6.656a8.092,8.092,0,0,1,8.079,8.086v14.085a.786.786,0,0,1-.785.787h-2.783a4.973,4.973,0,0,1-9.823,0Zm1.508-.788h0a3.4,3.4,0,1,0,3.4-3.407A3.408,3.408,0,0,0,841.04,1044.941Zm-21.076,0a3.4,3.4,0,1,0,3.4-3.406A3.409,3.409,0,0,0,819.964,1044.941Zm22.454,0a2.025,2.025,0,1,1,2.025,2.027A2.028,2.028,0,0,1,842.418,1044.941Zm1.571,0a.454.454,0,1,0,.454-.454A.455.455,0,0,0,843.989,1044.941Zm-22.647,0a2.025,2.025,0,1,1,2.025,2.027A2.028,2.028,0,0,1,821.343,1044.941Zm1.57,0a.454.454,0,1,0,.455-.454A.456.456,0,0,0,822.913,1044.941ZM810.6,1044.2a.787.787,0,0,1,0-1.573h.644a.787.787,0,0,1,0,1.573Zm-6,0a.787.787,0,0,1,0-1.573h3.387a.787.787,0,0,1,0,1.573Zm43.614-4.4v-1.99a.785.785,0,0,1,1.57,0v1.99a.785.785,0,0,1-1.57,0Zm-40.473-1.894a.786.786,0,0,1,0-1.571h5.6a.786.786,0,1,1,0,1.571Zm32.8-3.035a.786.786,0,0,1-.786-.787v-7.39a.786.786,0,0,1,.786-.786h4.3a4.945,4.945,0,0,1,4.938,4.941v3.235a.786.786,0,0,1-.786.787Zm.785-1.572h6.883v-2.449a3.372,3.372,0,0,0-3.368-3.369h-3.515Zm-36.731-.11a.786.786,0,1,1,0-1.571h6.649a.786.786,0,1,1,0,1.571Zm2.094-6.288a.786.786,0,0,1,0-1.572h6.125a.786.786,0,0,1,0,1.572Z" fill="#a3bbc8"/>
    <ellipse id="Ellipse_1" data-name="Ellipse 1" cx="9.81" cy="9.8" rx="9.81" ry="9.8" transform="translate(837.94 1037.4)" fill="#a3bbc8" opacity="0.341"/>
  </g>
</svg>
