<svg width="22" height="18" viewBox="0 0 22 18">
  <path id="Forma_1" data-name="Forma 1" d="M882.99,1569.82a6.21,6.21,0,0,0-1.849-4.1A5.873,5.873,0,0,0,877,1564c-2.311,0-3.948,1.785-4.827,2.745l-.156.17-.083-.094c-.8-.917-2.476-2.82-4.938-2.82a5.873,5.873,0,0,0-4.139,1.721,6.211,6.211,0,0,0-1.849,4.1,6.83,6.83,0,0,0,1.27,4.338,29.151,29.151,0,0,0,4.763,4.748c1.705,1.411,3.951,3.093,4.966,3.093,1.031,0,3.269-1.679,4.964-3.087a29.025,29.025,0,0,0,4.746-4.754A6.9,6.9,0,0,0,882.99,1569.82Zm-2.376,3.61a27.038,27.038,0,0,1-4.43,4.418c-2.406,2-3.831,2.8-4.173,2.826-.341-.035-1.77-.833-4.188-2.842a27.085,27.085,0,0,1-4.437-4.4,5.586,5.586,0,0,1-1.054-3.538,4.807,4.807,0,0,1,4.666-4.569c1.863,0,3.216,1.543,3.943,2.37.427.488.663.755,1.059.755s.672-.286,1.151-.809c.794-.866,2.122-2.316,3.851-2.316a4.807,4.807,0,0,1,4.666,4.569A5.528,5.528,0,0,1,880.614,1573.43Z" transform="translate(-861 -1563.999)" fill="#fff"/>
</svg>
