<svg xmlns="http://www.w3.org/2000/svg" width="17.975" height="15.52" viewBox="0 0 17.975 15.52">
  <g id="heart" transform="translate(0 -36.545)">
    <g id="Сгруппировать_3" data-name="Сгруппировать 3" transform="translate(0 36.545)">
      <path id="Контур_1" data-name="Контур 1" d="M16.7,37.8a4.8,4.8,0,0,0-3.521-1.253,3.974,3.974,0,0,0-1.269.217,5.112,5.112,0,0,0-1.2.586q-.557.369-.958.692a9.292,9.292,0,0,0-.762.687,9.305,9.305,0,0,0-.762-.687q-.4-.323-.958-.692a5.119,5.119,0,0,0-1.2-.586,3.975,3.975,0,0,0-1.269-.217A4.8,4.8,0,0,0,1.274,37.8,4.653,4.653,0,0,0,0,41.274a4.456,4.456,0,0,0,.236,1.394,6.138,6.138,0,0,0,.537,1.223,8.943,8.943,0,0,0,.682.985q.381.48.557.662a3.334,3.334,0,0,0,.276.263l6.259,6.083a.626.626,0,0,0,.883,0l6.249-6.063a6.623,6.623,0,0,0,2.3-4.547A4.652,4.652,0,0,0,16.7,37.8Zm-1.9,7.073L8.988,50.519,3.16,44.86a5.323,5.323,0,0,1-1.876-3.587A4.435,4.435,0,0,1,1.5,39.829a2.828,2.828,0,0,1,.552-1,2.651,2.651,0,0,1,.817-.6,3.606,3.606,0,0,1,.943-.313,5.7,5.7,0,0,1,.983-.081,2.867,2.867,0,0,1,1.123.258,5.12,5.12,0,0,1,1.108.647q.507.389.868.728a7.822,7.822,0,0,1,.6.621.654.654,0,0,0,.983,0,7.8,7.8,0,0,1,.6-.621q.361-.338.868-.728a5.118,5.118,0,0,1,1.109-.647,2.867,2.867,0,0,1,1.123-.258,5.706,5.706,0,0,1,.983.081,3.6,3.6,0,0,1,.943.313,2.651,2.651,0,0,1,.817.6,2.828,2.828,0,0,1,.552,1,4.439,4.439,0,0,1,.215,1.445A5.347,5.347,0,0,1,14.805,44.871Z" transform="translate(0 -36.545)" fill="#243f4d"/>
    </g>
  </g>
</svg>
