<svg xmlns="http://www.w3.org/2000/svg" width="20.03" height="20.03" viewBox="0 0 20.03 20.03">
  <path id="Ellipse_32" data-name="Ellipse 32" d="M1826.73,81.47a2.15,2.15,0,1,1,2.15,2.15A2.15,2.15,0,0,1,1826.73,81.47Zm-7.871,0a2.15,2.15,0,1,1,2.15,2.15A2.151,2.151,0,0,1,1818.859,81.47Zm-7.86,0a2.15,2.15,0,1,1,2.15,2.15A2.151,2.151,0,0,1,1811,81.47Zm15.73-7.87a2.15,2.15,0,1,1,2.15,2.15A2.15,2.15,0,0,1,1826.73,73.6Zm-7.871,0a2.15,2.15,0,1,1,2.15,2.15A2.15,2.15,0,0,1,1818.859,73.6Zm-7.86,0a2.15,2.15,0,1,1,2.15,2.15A2.15,2.15,0,0,1,1811,73.6Zm15.73-7.861a2.15,2.15,0,1,1,2.15,2.15A2.15,2.15,0,0,1,1826.73,65.74Zm-7.871,0a2.15,2.15,0,1,1,2.15,2.15A2.15,2.15,0,0,1,1818.859,65.74Zm-7.86,0a2.15,2.15,0,1,1,2.15,2.15A2.15,2.15,0,0,1,1811,65.74Z" transform="translate(-1811 -63.59)" fill="#fff"/>
</svg>
