<svg xmlns="http://www.w3.org/2000/svg" width="53.552" height="52.242" viewBox="0 0 53.552 52.242">
  <g id="Сгруппировать_1" data-name="Сгруппировать 1" transform="translate(-1398.258 -1011.418)">
    <path id="credit-card" d="M1402.092,1055.255a3.841,3.841,0,0,1-3.834-3.838V1027.8a3.841,3.841,0,0,1,3.834-3.838h25.128a.837.837,0,0,1,0,1.673h-25.128a2.167,2.167,0,0,0-2.163,2.165v2.885h9.869a.837.837,0,0,1,0,1.673h-9.869v5.47h27.291a.837.837,0,0,1,0,1.673h-27.291v11.92a2.167,2.167,0,0,0,2.163,2.165h39.334a2.167,2.167,0,0,0,2.163-2.165v-8.266a.836.836,0,1,1,1.672,0v8.266a3.84,3.84,0,0,1-3.834,3.838Zm1.619-7.353a.837.837,0,0,1,0-1.673h8.185a.837.837,0,0,1,0,1.673Zm0-3.992a.837.837,0,0,1,0-1.673h14.27a.837.837,0,0,1,0,1.673Zm28.724-3.106a3.046,3.046,0,0,1-3.042-3.045v-10.747a3.049,3.049,0,0,1,2.394-2.974v-6.016a6.595,6.595,0,1,1,13.19,0v6.016a3.048,3.048,0,0,1,2.394,2.974v4.774a.836.836,0,1,1-1.672,0v-4.774a1.372,1.372,0,0,0-1.37-1.371h-11.893a1.372,1.372,0,0,0-1.37,1.371v10.748a1.372,1.372,0,0,0,1.37,1.372h11.893a1.372,1.372,0,0,0,1.37-1.372v-3.186a.836.836,0,0,1,1.672,0v3.186a3.046,3.046,0,0,1-3.042,3.045Zm1.023-22.783v5.946h9.847v-5.946a4.923,4.923,0,1,0-9.847,0Zm4.088,18.383v-2.041a3.092,3.092,0,1,1,1.671,0v2.041a.836.836,0,1,1-1.671,0Zm-.585-5.02a1.421,1.421,0,1,0,1.421-1.421A1.423,1.423,0,0,0,1436.961,1031.384Zm-23.956.971a.837.837,0,0,1,0-1.674h14.216a.837.837,0,0,1,0,1.674Z" fill="#a3bbc8"/>
    <ellipse id="Ellipse_1" data-name="Ellipse 1" cx="9.81" cy="9.8" rx="9.81" ry="9.8" transform="translate(1432.19 1044.06)" fill="#a3bbc8" opacity="0.341"/>
  </g>
</svg>
