<svg xmlns="http://www.w3.org/2000/svg" width="15.296" height="15.297" viewBox="0 0 15.296 15.297">
  <path id="icon" d="M1555.59,80.319l-2.058-2.351a6.239,6.239,0,1,1,3.16-3.11l2.336,2.036c1.7,1.746.745,3.266.292,3.717a2.381,2.381,0,0,1-1.66.682A2.946,2.946,0,0,1,1555.59,80.319Zm-.935-2.993,1.871,2.188a1.354,1.354,0,0,0,1.881.226,1.313,1.313,0,0,0-.228-1.874l-2.162-1.879A6.244,6.244,0,0,1,1554.655,77.325Zm-8.64-5.072a4.965,4.965,0,1,0,4.965-4.947A4.956,4.956,0,0,0,1546.015,72.253Zm4.479,3.831a4.119,4.119,0,0,1-3.279-3.266.629.629,0,0,1,1.232-.257,2.653,2.653,0,0,0,.779,1.489,3.041,3.041,0,0,0,1.495.777.634.634,0,0,1,.486.743.64.64,0,0,1-.634.519A.709.709,0,0,1,1550.494,76.084Z" transform="translate(-1544.704 -65.996)" fill="#243f4d"/>
</svg>
