<svg xmlns="http://www.w3.org/2000/svg" width="50.872" height="53.126" viewBox="0 0 50.872 53.126">
  <g id="Сгруппировать_4" data-name="Сгруппировать 4" transform="translate(-222.908 -1011.094)">
    <ellipse id="Ellipse_1" data-name="Ellipse 1" cx="9.8" cy="9.81" rx="9.8" ry="9.81" transform="translate(254.18 1044.6)" fill="#a3bbc8" opacity="0.341"/>
    <path id="Shape_1" data-name="Shape 1" d="M232.736,1055.3a.937.937,0,1,1,1.125-1.5,22.684,22.684,0,0,0,32.86-30.139.938.938,0,1,1,1.591-.993,24.558,24.558,0,0,1-35.576,32.631Zm-2.467-2.12a24.556,24.556,0,0,1,33.549-35.849l-.041-1.749a.938.938,0,1,1,1.875-.045l.1,4.06a.938.938,0,0,1-.914.96l-4.06.1h-.023a.937.937,0,0,1-.022-1.874l1.842-.044a22.677,22.677,0,0,0-37.787,16.915,22.513,22.513,0,0,0,6.8,16.192.937.937,0,0,1-1.313,1.338Zm25.576-7.635v-5.5h-6.938a.937.937,0,0,1-.8-1.418l7.875-13.189a.937.937,0,0,1,1.742.472s0,.005,0,.008v7.609a.938.938,0,0,1-1.876,0v-4.21l-5.286,8.852h5.286v-1.517a.938.938,0,0,1,1.876,0v1.517h2.6a.937.937,0,1,1,0,1.875h-2.6v5.5a.938.938,0,0,1-1.876,0Zm-20.377.938a.938.938,0,0,1-.662-1.6l6.343-6.343a10.834,10.834,0,0,0,3.195-7.714,3.969,3.969,0,0,0-7.938,0,.938.938,0,1,1-1.876,0,5.845,5.845,0,1,1,11.689,0,12.7,12.7,0,0,1-3.745,9.04l-4.743,4.743h7.55a.938.938,0,0,1,0,1.876Z" fill="#a3bbc8"/>
  </g>
</svg>
